<svg width="200" height="120" viewBox="0 0 200 120" fill="none" xmlns="http://www.w3.org/2000/svg" aria-hidden="true">
  <text x="100" y="16" text-anchor="middle" fill="#5c5c5c" font-family="Inter, sans-serif" font-size="10" font-weight="600">last word</text>
  <rect x="28" y="24" width="28" height="28" stroke="#fbab20" stroke-width="2" fill="#d9d9d9"/>
  <text x="42" y="44" text-anchor="middle" fill="#141414" font-family="Inter, sans-serif" font-size="14" font-weight="700">B</text>
  <rect x="60" y="24" width="28" height="28" stroke="#141414" stroke-width="2" fill="#fff"/>
  <text x="74" y="44" text-anchor="middle" fill="#141414" font-family="Inter, sans-serif" font-size="14" font-weight="700">R</text>
  <rect x="92" y="24" width="28" height="28" stroke="#fbab20" stroke-width="2" fill="#d9d9d9"/>
  <text x="106" y="44" text-anchor="middle" fill="#141414" font-family="Inter, sans-serif" font-size="14" font-weight="700">A</text>
  <rect x="124" y="24" width="28" height="28" stroke="#141414" stroke-width="2" fill="#fff"/>
  <text x="138" y="44" text-anchor="middle" fill="#141414" font-family="Inter, sans-serif" font-size="14" font-weight="700">V</text>
  <rect x="156" y="24" width="16" height="28" stroke="#141414" stroke-width="2" fill="#fff"/>
  <text x="164" y="44" text-anchor="middle" fill="#141414" font-family="Inter, sans-serif" font-size="14" font-weight="700">E</text>
  <path d="M42 58 L42 68 M106 58 L106 68" stroke="#fbab20" stroke-width="2" stroke-dasharray="3 2"/>
  <text x="100" y="82" text-anchor="middle" fill="#5c5c5c" font-family="Inter, sans-serif" font-size="10" font-weight="600">your turn</text>
  <rect x="28" y="88" width="28" height="28" stroke="#fbab20" stroke-width="2" fill="#d9d9d9"/>
  <text x="42" y="108" text-anchor="middle" fill="#141414" font-family="Inter, sans-serif" font-size="14" font-weight="700">B</text>
  <rect x="60" y="88" width="28" height="28" stroke="#141414" stroke-width="2" fill="#fff6e3"/>
  <text x="74" y="108" text-anchor="middle" fill="#141414" font-family="Inter, sans-serif" font-size="14" font-weight="700">L</text>
  <rect x="92" y="88" width="28" height="28" stroke="#fbab20" stroke-width="2" fill="#d9d9d9"/>
  <text x="106" y="108" text-anchor="middle" fill="#141414" font-family="Inter, sans-serif" font-size="14" font-weight="700">A</text>
  <rect x="124" y="88" width="28" height="28" stroke="#141414" stroke-width="2" fill="#fff"/>
  <text x="138" y="108" text-anchor="middle" fill="#141414" font-family="Inter, sans-serif" font-size="14" font-weight="700">Z</text>
  <rect x="156" y="88" width="16" height="28" stroke="#141414" stroke-width="2" fill="#fff"/>
  <text x="164" y="108" text-anchor="middle" fill="#141414" font-family="Inter, sans-serif" font-size="14" font-weight="700">E</text>
</svg>
