<svg width="18" height="22" viewBox="0 0 18 22" fill="none" xmlns="http://www.w3.org/2000/svg">
  <path d="M11.2 1H3.4A1.4 1.4 0 0 0 2 2.4v17.2A1.4 1.4 0 0 0 3.4 21h11.2a1.4 1.4 0 0 0 1.4-1.4V5.8L11.2 1Z" stroke="white" stroke-width="1.6" stroke-linejoin="round"/>
  <path d="M11 1.4V5a1.2 1.2 0 0 0 1.2 1.2h3.6" stroke="white" stroke-width="1.6" stroke-linejoin="round"/>
  <rect x="4.7" y="9.3" width="2" height="2" fill="white"/>
  <path d="M8.4 10.3h4.8" stroke="white" stroke-width="1.5" stroke-linecap="round"/>
  <rect x="4.7" y="13.1" width="2" height="2" fill="white"/>
  <path d="M8.4 14.1h4.8" stroke="white" stroke-width="1.5" stroke-linecap="round"/>
  <rect x="4.7" y="16.9" width="2" height="2" fill="white"/>
  <path d="M8.4 17.9h2.9" stroke="white" stroke-width="1.5" stroke-linecap="round"/>
</svg>
